Coordinates
version=1
nRows=33
nColumns=30
inDegrees=yes

Units are S.I. units (second, meters, Newtons, ...)
Angles are in degrees.

endheader
time	floatyaw	floatroll	floatpitch	floatx	floaty	floatz	pro_sup_l	deviation_l	flexion_l	cmc_flexion_l	cmc_abduction_l	mp_flexion_l	ip_flexion_l	2mcp_flexion_l	2mcp_abduction_l	2pm_flexion_l	2md_flexion_l	3mcp_flexion_l	3mcp_abduction_l	3pm_flexion_l	3md_flexion_l	4mcp_flexion_l	4mcp_abduction_l	4pm_flexion_l	4md_flexion_l	5mcp_flexion_l	5mcp_abduction_l	5pm_flexion_l	5md_flexion_l
-1.495000	-160.147433	-5.066637	-73.570646	0.077765	-0.179047	-0.021608	102.080886	3.588707	-1.414749	15.885413	5.181804	-25.947295	-42.128492	30.405120	6.491543	42.496868	29.184383	24.056880	4.090738	44.174086	29.449059	13.269519	-4.456760	52.730295	36.752388	1.290243	-7.476597	62.932751	42.726238
-1.485000	-160.147433	-5.066637	-73.570646	0.077248	-0.178817	-0.022020	102.150874	3.650788	-1.429944	15.895748	5.191756	-25.944605	-42.133063	30.427100	6.524817	42.547304	29.215808	24.134940	4.098951	44.221459	29.476821	13.385679	-4.465382	52.774573	36.808696	1.422188	-7.521698	62.971506	42.758012
-1.475000	-160.147433	-5.066637	-73.570646	0.076751	-0.178594	-0.022428	102.233870	3.699065	-1.437138	15.907376	5.206729	-25.929885	-42.111811	30.480580	6.573510	42.618014	29.255130	24.253108	4.104133	44.297199	29.514949	13.515179	-4.478190	52.851166	36.894989	1.596554	-7.578450	63.016111	42.797239
-1.465000	-160.147433	-5.066637	-73.570646	0.076280	-0.178393	-0.022818	102.321898	3.738560	-1.441089	15.917192	5.221824	-25.907878	-42.072587	30.557111	6.631189	42.707647	29.304512	24.391743	4.106433	44.405488	29.569765	13.642287	-4.493291	52.960410	37.010372	1.799560	-7.636383	63.067651	42.843753
-1.455000	-160.147433	-5.066637	-73.570646	0.075837	-0.178226	-0.023179	102.409393	3.775944	-1.449476	15.918384	5.228905	-25.884251	-42.025223	30.644155	6.689157	42.808142	29.368352	24.524091	4.108822	44.541541	29.646219	13.752683	-4.508088	53.097210	37.149915	2.010615	-7.688507	63.133264	42.904167
-1.445000	-160.147433	-5.066637	-73.570646	0.075420	-0.178095	-0.023509	102.496145	3.817734	-1.468777	15.903675	5.220930	-25.864581	-41.978801	30.727038	6.740464	42.906931	29.454681	24.624951	4.115581	44.693983	29.747791	13.839163	-4.520449	53.252348	37.306964	2.210777	-7.733995	63.221541	42.990299
-1.435000	-160.147433	-5.066637	-73.570646	0.075025	-0.177993	-0.023811	102.586728	3.867934	-1.500452	15.869940	5.195950	-25.853518	-41.940954	30.791470	6.782863	42.991514	29.573282	24.678642	4.129596	44.849823	29.875812	13.902859	-4.529528	53.414476	37.474624	2.388985	-7.776892	63.335470	43.112546
-1.425000	-160.147433	-5.066637	-73.570646	0.074647	-0.177909	-0.024091	102.686472	3.926371	-1.539648	15.820949	5.158409	-25.853839	-41.918026	30.826952	6.818624	43.054572	29.729925	24.683124	4.150275	44.998925	30.027528	13.950156	-4.535869	53.572424	37.645421	2.542454	-7.821701	63.468200	43.271645
-1.415000	-160.147433	-5.066637	-73.570646	0.074284	-0.177833	-0.024353	102.796524	3.988802	-1.577185	15.766234	5.117223	-25.865861	-41.914809	30.830086	6.851484	43.097877	29.920098	24.649329	4.173458	45.136302	30.194302	13.988924	-4.540949	53.717768	37.810471	2.673014	-7.868823	63.604853	43.454160
-1.405000	-160.147433	-5.066637	-73.570646	0.073940	-0.177767	-0.024591	102.911296	4.048842	-1.603832	15.716699	5.082367	-25.887841	-41.933605	30.805766	6.883233	43.133538	30.127681	24.596683	4.193333	45.262761	30.362510	14.027163	-4.546428	53.847082	37.960211	2.783928	-7.913009	63.729227	43.635500
-1.395000	-160.147433	-5.066637	-73.570646	0.073618	-0.177718	-0.024801	103.020140	4.100843	-1.614669	15.679513	5.062235	-25.917244	-41.973123	30.765352	6.912572	43.181035	30.330919	24.546912	4.205232	45.384532	30.517823	14.073808	-4.553426	53.962430	38.087075	2.879786	-7.946026	63.830795	43.789627
-1.385000	-160.147433	-5.066637	-73.570646	0.073315	-0.177696	-0.024979	103.112563	4.142575	-1.611550	15.654977	5.062540	-25.952003	-42.028038	30.723307	6.936805	43.259617	30.511995	24.518501	4.207877	45.511188	30.650040	14.139046	-4.562111	54.069118	38.188095	2.968356	-7.961893	63.907897	43.899890
-1.375000	-160.147433	-5.066637	-73.570646	0.073027	-0.177705	-0.025127	103.184015	4.176591	-1.602700	15.637037	5.085914	-25.991035	-42.090000	30.694509	6.954773	43.378480	30.663426	24.523452	4.204103	45.651306	30.754574	14.232158	-4.571805	54.171944	38.265202	3.061526	-7.961349	63.966686	43.964697
-1.365000	-160.147433	-5.066637	-73.570646	0.072750	-0.177742	-0.025251	103.238785	4.209453	-1.599678	15.617332	5.131131	-26.033923	-42.150414	30.692659	6.968907	43.530005	30.787861	24.566524	4.199721	45.807687	30.829889	14.357463	-4.581579	54.272937	38.323369	3.173514	-7.952682	64.018313	43.995685
-1.355000	-160.147433	-5.066637	-73.570646	0.072487	-0.177797	-0.025355	103.288132	4.248806	-1.612818	15.590650	5.191910	-26.080303	-42.204186	30.728188	6.985211	43.691143	30.894054	24.646004	4.200921	45.975738	30.874332	14.511099	-4.591071	54.372736	38.368880	3.316712	-7.948215	64.076485	44.011199
-1.345000	-160.147433	-5.066637	-73.570646	0.072248	-0.177854	-0.025440	103.344792	4.299507	-1.646910	15.558397	5.256386	-26.129624	-42.252672	30.804545	7.011299	43.833980	30.994113	24.754960	4.211347	46.147030	30.886499	14.681218	-4.601077	54.474754	38.409453	3.497374	-7.958267	64.155193	44.029716
-1.335000	-160.147433	-5.066637	-73.570646	0.072041	-0.177903	-0.025508	103.417389	4.360838	-1.698934	15.527654	5.308579	-26.181511	-42.303931	30.914132	7.053356	43.940669	31.103610	24.882372	4.230354	46.315873	30.869721	14.851879	-4.613404	54.588418	38.455424	3.713610	-7.986160	64.265174	44.066005
-1.325000	-160.147433	-5.066637	-73.570646	0.071867	-0.177937	-0.025567	103.508373	4.426519	-1.758944	15.506214	5.332352	-26.236163	-42.369329	31.037029	7.113249	44.014472	31.241276	25.014082	4.253483	46.483569	30.836702	15.008379	-4.629810	54.727433	38.519485	3.956435	-8.027283	64.408873	44.129904
-1.315000	-160.147433	-5.066637	-73.570646	0.071720	-0.177957	-0.025626	103.616339	4.487605	-1.813737	15.496967	5.316589	-26.293982	-42.457444	31.145228	7.186986	44.080111	31.424291	25.134262	4.274938	46.656272	30.808972	15.141411	-4.650584	54.901947	38.613388	4.212497	-8.072534	64.576122	44.226185
-1.305000	-160.147433	-5.066637	-73.570646	0.071590	-0.177962	-0.025699	103.739929	4.536527	-1.851763	15.495637	5.258852	-26.354426	-42.568474	31.212439	7.265403	44.172616	31.659527	25.228549	4.290555	46.837637	30.809065	15.249027	-4.673791	55.108561	38.742613	4.466786	-8.113474	64.744302	44.354345
-1.295000	-160.147433	-5.066637	-73.570646	0.071467	-0.177948	-0.025795	103.879089	4.570071	-1.867342	15.493668	5.165065	-26.415239	-42.692904	31.225879	7.337028	44.320739	31.936122	25.289114	4.299604	47.022135	30.849022	15.336838	-4.695825	55.325726	38.902105	4.705100	-8.145841	64.885506	44.508289
-1.285000	-160.147433	-5.066637	-73.570646	0.071348	-0.177913	-0.025915	104.031843	4.590194	-1.862619	15.484240	5.045460	-26.473064	-42.815662	31.193891	7.391952	44.534420	32.225855	25.319632	4.304686	47.194690	30.922554	15.416826	-4.713001	55.520139	39.076183	4.916842	-8.169826	64.978911	44.676789
-1.275000	-160.147433	-5.066637	-73.570646	0.071229	-0.177857	-0.026053	104.188958	4.603032	-1.846561	15.466890	4.910154	-26.525115	-42.923067	31.144273	7.424941	44.802565	32.493321	25.336374	4.310089	47.337418	31.006422	15.504306	-4.723228	55.662043	39.243485	5.097506	-8.187946	65.021965	44.845556
-1.265000	-160.147433	-5.066637	-73.570646	0.071105	-0.177785	-0.026198	104.331389	4.616950	-1.831387	15.447236	4.767977	-26.570647	-43.008263	31.113258	7.436519	45.099813	32.711015	25.362980	4.319495	47.438853	31.070465	15.612747	-4.726832	55.739943	39.384781	5.248778	-8.202451	65.033095	45.000814
-1.255000	-160.147433	-5.066637	-73.570646	0.070966	-0.177704	-0.026337	104.433940	4.640229	-1.827888	15.432175	4.628848	-26.611409	-43.072726	31.130591	7.431963	45.395853	32.870687	25.420426	4.334066	47.499513	31.090403	15.747702	-4.726128	55.765019	39.489814	5.375126	-8.213855	65.043360	45.133113
-1.245000	-160.147433	-5.066637	-73.570646	0.070801	-0.177623	-0.026464	104.474198	4.678755	-1.841658	15.424336	4.506302	-26.651194	-43.124420	31.207957	7.418942	45.662553	32.984632	25.517196	4.351817	47.530626	31.057068	15.902974	-4.724108	55.763088	39.559928	5.478979	-8.221119	65.081602	45.239786
-1.235000	-160.147433	-5.066637	-73.570646	0.070602	-0.177541	-0.026583	104.442024	4.734254	-1.871908	15.419805	4.416450	-26.694725	-43.174238	31.335705	7.404748	45.879107	33.076720	25.645187	4.368650	47.547840	30.978832	16.062352	-4.723056	55.760476	39.605579	5.558827	-8.222991	65.161606	45.324735
-1.225000	-160.147433	-5.066637	-73.570646	0.070368	-0.177453	-0.026700	104.344264	4.803763	-1.913317	15.410396	4.373040	-26.745947	-43.231882	31.488685	7.394040	46.036809	33.168399	25.783857	4.380516	47.564613	30.877379	16.207524	-4.723813	55.772683	39.640380	5.612742	-8.219332	65.277546	45.395288
-1.215000	-160.147433	-5.066637	-73.570646	0.070104	-0.177349	-0.026826	104.202193	4.880729	-1.959811	15.388705	4.381911	-26.805955	-43.302025	31.638098	7.387914	46.141727	33.267253	25.910490	4.385437	47.589003	30.778985	16.328426	-4.725941	55.800781	39.675004	5.644860	-8.211466	65.408194	45.457684
-1.205000	-160.147433	-5.066637	-73.570646	0.069816	-0.177221	-0.026971	104.043473	4.957394	-2.008110	15.353029	4.438426	-26.871380	-43.382081	31.763755	7.384811	46.211507	33.364482	26.010934	4.384225	47.624162	30.704676	16.429679	-4.728466	55.834836	39.713974	5.669100	-8.201441	65.526181	45.513953
-1.195000	-160.147433	-5.066637	-73.570646	0.069511	-0.177062	-0.027140	103.893037	5.027438	-2.059047	15.309915	4.528674	-26.934264	-43.462931	31.861149	7.382751	46.266290	33.442548	26.085089	4.379573	47.670276	30.663102	16.528716	-4.730594	55.860675	39.756181	5.706174	-8.191037	65.607995	45.562132
-1.185000	-160.147433	-5.066637	-73.570646	0.069187	-0.176873	-0.027336	103.766841	5.087816	-2.115879	15.273124	4.632826	-26.983989	-43.532588	31.940427	7.381442	46.319304	33.487599	26.144657	4.374313	47.726028	30.649103	16.646512	-4.731959	55.866509	39.797668	5.775182	-8.181465	65.641836	45.599272
-1.175000	-160.147433	-5.066637	-73.570646	0.068844	-0.176658	-0.027553	103.669781	5.139232	-2.180654	15.258828	4.729067	-27.010888	-43.581077	32.018414	7.382821	46.373393	33.498223	26.205082	4.370123	47.789449	30.648353	16.796406	-4.732398	55.847436	39.834513	5.885020	-8.173984	65.631477	45.624850
